<mxfile host="65bd71144e">
    <diagram id="yBUCkBqYLdCoNlXtEjIr" name="Page-1">
        <mxGraphModel dx="365" dy="486" grid="1" gridSize="10" guides="1" tooltips="1" connect="1" arrows="1" fold="1" page="1" pageScale="1" pageWidth="850" pageHeight="1100" math="0" shadow="0">
            <root>
                <mxCell id="0"/>
                <mxCell id="1" parent="0"/>
                <mxCell id="2" value="App" style="rounded=1;whiteSpace=wrap;html=1;" vertex="1" parent="1">
                    <mxGeometry x="160" y="80" width="80" height="50" as="geometry"/>
                </mxCell>
                <mxCell id="3" value="Category Filter" style="rounded=1;whiteSpace=wrap;html=1;" vertex="1" parent="1">
                    <mxGeometry x="70" y="140" width="80" height="50" as="geometry"/>
                </mxCell>
                <mxCell id="4" value="NewTask Form" style="rounded=1;whiteSpace=wrap;html=1;" vertex="1" parent="1">
                    <mxGeometry x="160" y="140" width="80" height="50" as="geometry"/>
                </mxCell>
                <mxCell id="5" value="Task&lt;br&gt;List" style="rounded=1;whiteSpace=wrap;html=1;" vertex="1" parent="1">
                    <mxGeometry x="250" y="140" width="80" height="50" as="geometry"/>
                </mxCell>
                <mxCell id="6" value="task" style="rounded=1;whiteSpace=wrap;html=1;" vertex="1" parent="1">
                    <mxGeometry x="250" y="210" width="80" height="50" as="geometry"/>
                </mxCell>
            </root>
        </mxGraphModel>
    </diagram>
</mxfile>